<svg xmlns="http://www.w3.org/2000/svg" width="1200" height="604" viewBox="0 0 1200 604">
  <defs>
    <linearGradient id="headerGrad" x1="0%" y1="0%" x2="100%" y2="100%">
      <stop offset="0%" style="stop-color:#f6f8fa;stop-opacity:1" />
      <stop offset="100%" style="stop-color:#ffffff;stop-opacity:1" />
    </linearGradient>
  </defs>
  <style>
    .bg { fill: #ffffff; }
    .header-bg { fill: url(#headerGrad); }
    .table-header-bg { fill: #f6f8fa; }
    .table-header { font: 600 12px 'Inter', 'SF Pro Display', -apple-system, BlinkMacSystemFont, 'Segoe UI', Roboto, Helvetica, Arial, sans-serif; fill: #57606a; text-transform: uppercase; letter-spacing: 0.5px; }
    .row { font: 14px 'Inter', 'SF Pro Display', -apple-system, BlinkMacSystemFont, 'Segoe UI', Roboto, Helvetica, Arial, sans-serif; fill: #24292f; }
    .rank { font-weight: 700; fill: #57606a; }
    .rank-1 { fill: #d4a000; }
    .rank-2 { fill: #8a8a8a; }
    .rank-3 { fill: #a0522d; }
    .provider { font-weight: 600; fill: #0969da; }
    .median { font-weight: 700; font-size: 15px; }
    .fast { fill: #1a7f37; }
    .medium { fill: #9a6700; }
    .slow { fill: #cf222e; }
    .status { fill: #57606a; }
    .divider { stroke: #d0d7de; stroke-width: 1; }
    .border { stroke: #d0d7de; stroke-width: 1; fill: none; }
    .timestamp { font: 11px 'Inter', 'SF Pro Display', -apple-system, BlinkMacSystemFont, 'Segoe UI', Roboto, Helvetica, Arial, sans-serif; fill: #57606a; }
    .title { font: bold 28px 'Inter', 'SF Pro Display', -apple-system, BlinkMacSystemFont, 'Segoe UI', Roboto, Helvetica, Arial, sans-serif; fill: #24292f; }
    .subtitle { font: 14px 'Inter', 'SF Pro Display', -apple-system, BlinkMacSystemFont, 'Segoe UI', Roboto, Helvetica, Arial, sans-serif; fill: #57606a; }
    .logo { fill: #24292f; }
    .metrics-label { font: 600 12px 'Inter', 'SF Pro Display', -apple-system, BlinkMacSystemFont, 'Segoe UI', Roboto, Helvetica, Arial, sans-serif; fill: #57606a; text-transform: uppercase; letter-spacing: 0.5px; }
    .metrics-row { font: 13px 'Inter', 'SF Pro Display', -apple-system, BlinkMacSystemFont, 'Segoe UI', Roboto, Helvetica, Arial, sans-serif; fill: #24292f; }
  </style>

  <!-- Background -->
  <rect class="bg" width="1200" height="604"/>

  <!-- Logo (black square with white C) -->
  <g transform="translate(24, 24)">
    <rect width="60" height="60" fill="#000000"/>
    <g transform="scale(0.035) translate(0, 0)">
      <path fill="#ffffff" d="M1036.26,1002.28h237.87l-.93,19.09c-8.38,110.32-49.81,198.3-123.82,262.07-73.09,63.31-170.84,95.43-290.48,95.43-130.81,0-235.55-44.69-311.43-133.6-74.48-87.98-112.65-209.48-112.65-361.23v-60.51c0-96.83,17.7-183.41,51.68-257.43,34.91-74.95,85.19-133.61,149.89-173.63,64.7-40.04,140.12-60.52,225.3-60.52,117.77,0,214.13,32.12,286.29,95.9,72.62,63.3,114.98,153.61,126.15,267.67l1.86,19.08h-238.34l-.93-15.83c-4.65-59.11-20.95-101.94-47.95-127.08-27-25.6-69.83-38.17-127.08-38.17-61.91,0-107.06,20.95-137.33,65.17-31.65,45.15-47.94,117.77-48.87,215.53v74.48c0,102.41,15.36,177.83,45.62,223.91,28.86,44.22,74.01,65.63,137.79,65.63,58.19,0,101.48-12.57,128.95-38.17,26.99-25.14,43.29-66.1,47.48-121.5l.93-16.3Z"/>
    </g>
  </g>

  <!-- Title -->
  <text class="title" x="100" y="55">Sequential Benchmarks</text>
  <text class="subtitle" x="100" y="78">Independent performance benchmarks for sandbox providers</text>

  <!-- Table header background -->
  <rect class="table-header-bg" y="134" width="1200" height="44"/>

  <!-- Table header text -->
  <text class="table-header" x="40" y="162">#</text>
  <text class="table-header" x="80" y="162">Provider</text>
  <text class="table-header" x="280" y="162">Score</text>
  <text class="table-header" x="400" y="162">Median TTI</text>
  <text class="table-header" x="530" y="162">Min</text>
  <text class="table-header" x="650" y="162">Max</text>
  <text class="table-header" x="770" y="162">P95</text>
  <text class="table-header" x="890" y="162">P99</text>
  <text class="table-header" x="1050" y="162">Status</text>

  <!-- Row 1 -->
  <text class="rank rank-1" x="40" y="208">1</text>
  <text class="row provider" x="80" y="208">Daytona</text>
  <text class="row median" x="280" y="208">97.6</text>
  <text class="row median fast" x="400" y="208">0.11s</text>
  <text class="row" x="530" y="208">0.07s</text>
  <text class="row" x="650" y="208">0.51s</text>
  <text class="row" x="770" y="208">0.30s</text>
  <text class="row" x="890" y="208">0.46s</text>
  <text class="row status" x="1050" y="208">100/100</text>
  <line class="divider" x1="24" y1="222" x2="1176" y2="222"/>

  <!-- Row 2 -->
  <text class="rank rank-2" x="40" y="252">2</text>
  <text class="row provider" x="80" y="252">Blaxel</text>
  <text class="row median" x="280" y="252">94.4</text>
  <text class="row median fast" x="400" y="252">0.47s</text>
  <text class="row" x="530" y="252">0.43s</text>
  <text class="row" x="650" y="252">0.81s</text>
  <text class="row" x="770" y="252">0.55s</text>
  <text class="row" x="890" y="252">0.69s</text>
  <text class="row status" x="1050" y="252">100/100</text>
  <line class="divider" x1="24" y1="266" x2="1176" y2="266"/>

  <!-- Row 3 -->
  <text class="rank rank-3" x="40" y="296">3</text>
  <text class="row provider" x="80" y="296">Hopx</text>
  <text class="row median" x="280" y="296">89.7</text>
  <text class="row median fast" x="400" y="296">0.89s</text>
  <text class="row" x="530" y="296">0.81s</text>
  <text class="row" x="650" y="296">1.50s</text>
  <text class="row" x="770" y="296">1.03s</text>
  <text class="row" x="890" y="296">1.17s</text>
  <text class="row status" x="1050" y="296">100/100</text>
  <line class="divider" x1="24" y1="310" x2="1176" y2="310"/>

  <!-- Row 4 -->
  <text class="rank" x="40" y="340">4</text>
  <text class="row provider" x="80" y="340">E2B</text>
  <text class="row median" x="280" y="340">86.9</text>
  <text class="row median fast" x="400" y="340">0.24s</text>
  <text class="row" x="530" y="340">0.20s</text>
  <text class="row" x="650" y="340">6.86s</text>
  <text class="row" x="770" y="340">0.46s</text>
  <text class="row" x="890" y="340">0.63s</text>
  <text class="row status" x="1050" y="340">100/100</text>
  <line class="divider" x1="24" y1="354" x2="1176" y2="354"/>

  <!-- Row 5 -->
  <text class="rank" x="40" y="384">5</text>
  <text class="row provider" x="80" y="384">Namespace</text>
  <text class="row median" x="280" y="384">81.3</text>
  <text class="row median medium" x="400" y="384">1.67s</text>
  <text class="row" x="530" y="384">1.54s</text>
  <text class="row" x="650" y="384">2.04s</text>
  <text class="row" x="770" y="384">1.87s</text>
  <text class="row" x="890" y="384">2.04s</text>
  <text class="row status" x="1050" y="384">99/100</text>
  <line class="divider" x1="24" y1="398" x2="1176" y2="398"/>

  <!-- Row 6 -->
  <text class="rank" x="40" y="428">6</text>
  <text class="row provider" x="80" y="428">Vercel</text>
  <text class="row median" x="280" y="428">79.2</text>
  <text class="row median medium" x="400" y="428">1.94s</text>
  <text class="row" x="530" y="428">1.63s</text>
  <text class="row" x="650" y="428">2.36s</text>
  <text class="row" x="770" y="428">2.19s</text>
  <text class="row" x="890" y="428">2.35s</text>
  <text class="row status" x="1050" y="428">100/100</text>
  <line class="divider" x1="24" y1="442" x2="1176" y2="442"/>

  <!-- Row 7 -->
  <text class="rank" x="40" y="472">7</text>
  <text class="row provider" x="80" y="472">Runloop</text>
  <text class="row median" x="280" y="472">62.6</text>
  <text class="row median slow" x="400" y="472">3.05s</text>
  <text class="row" x="530" y="472">2.44s</text>
  <text class="row" x="650" y="472">5.96s</text>
  <text class="row" x="770" y="472">3.95s</text>
  <text class="row" x="890" y="472">4.10s</text>
  <text class="row status" x="1050" y="472">100/100</text>
  <line class="divider" x1="24" y1="486" x2="1176" y2="486"/>

  <!-- Row 8 -->
  <text class="rank" x="40" y="516">8</text>
  <text class="row provider" x="80" y="516">Modal</text>
  <text class="row median" x="280" y="516">62.5</text>
  <text class="row median medium" x="400" y="516">1.74s</text>
  <text class="row" x="530" y="516">1.16s</text>
  <text class="row" x="650" y="516">13.16s</text>
  <text class="row" x="770" y="516">2.79s</text>
  <text class="row" x="890" y="516">7.63s</text>
  <text class="row status" x="1050" y="516">100/100</text>

  <!-- Timestamp -->
  <text class="timestamp" x="1176" y="576" text-anchor="end">Last updated: Mar 11, 2026, 01:05 PM UTC</text>

  <!-- Footnote -->
  <text class="timestamp" x="24" y="590">* Uses ComputeSDK orchestrator</text>

</svg>